/* XPM */
static char *f6e4a6e8657a450ab18084ab583affa7IHagosRocrrd89xL[] = {
/* columns rows colors chars-per-pixel */
"64 64 241 2 ",
"   c #050304",
".  c #0B0404",
"X  c #0D0A06",
"o  c #06050A",
"O  c #09060B",
"+  c #060A0E",
"@  c #0C0A0D",
"#  c #120C0C",
"$  c #130A09",
"%  c #12110E",
"&  c #19110F",
"*  c #050D13",
"=  c #0C0D12",
"-  c #030E1A",
";  c #0D0D1A",
":  c #110E14",
">  c #130E17",
",  c #051117",
"<  c #0C1215",
"1  c #03131C",
"2  c #0B131B",
"3  c #0C191A",
"4  c #05181F",
"5  c #131115",
"6  c #1C1413",
"7  c #13131A",
"8  c #1B161A",
"9  c #14191D",
"0  c #1C1B1C",
"q  c #1B1917",
"w  c #0F100B",
"e  c #231A16",
"r  c #231B1A",
"t  c #291E1D",
"y  c #241816",
"u  c #21140E",
"i  c #2B211E",
"p  c #222019",
"a  c #35241D",
"s  c #041523",
"d  c #0A1623",
"f  c #051926",
"g  c #0B1A25",
"h  c #05172A",
"j  c #051B2B",
"k  c #0A1C2B",
"l  c #08172D",
"z  c #131422",
"x  c #141B23",
"c  c #1B1D23",
"v  c #121E2B",
"b  c #1C1C2A",
"n  c #13152C",
"m  c #051D32",
"M  c #0A1D33",
"N  c #061E39",
"B  c #0B1E3A",
"V  c #091731",
"C  c #121D32",
"Z  c #241D28",
"A  c #0D212D",
"S  c #07212D",
"D  c #14222C",
"F  c #1B242C",
"G  c #1A2527",
"H  c #062234",
"J  c #0B2334",
"K  c #05243B",
"L  c #0B233B",
"P  c #07293D",
"I  c #0C2A3D",
"U  c #0C2936",
"Y  c #132333",
"T  c #1A2533",
"R  c #1C2A34",
"E  c #13243A",
"W  c #132A3C",
"Q  c #1A2B3A",
"!  c #192837",
"~  c #1E313B",
"^  c #16343F",
"/  c #252223",
"(  c #2B2423",
")  c #22242B",
"_  c #2C252A",
"`  c #2C2B2C",
"'  c #242B2E",
"]  c #332A26",
"[  c #342C2B",
"{  c #3A2D2C",
"}  c #332624",
"|  c #3B322E",
" . c #35332E",
".. c #222434",
"X. c #222C34",
"o. c #2B2B33",
"O. c #2B2C3B",
"+. c #262837",
"@. c #342F32",
"#. c #342A39",
"$. c #2B3132",
"%. c #23333C",
"&. c #2B333A",
"*. c #29383D",
"=. c #333234",
"-. c #3C3432",
";. c #33343C",
":. c #3C3B3A",
">. c #38383A",
",. c #423533",
"<. c #423935",
"1. c #443B3A",
"2. c #493C38",
"3. c #483630",
"4. c #47413B",
"5. c #58453A",
"6. c #614B3D",
"7. c #0B2542",
"8. c #042A44",
"9. c #0D2B43",
"0. c #0B2D4B",
"q. c #042846",
"w. c #132C43",
"e. c #1B2D43",
"r. c #112E4B",
"t. c #162847",
"y. c #0E3246",
"u. c #0C324D",
"i. c #07324E",
"p. c #123245",
"a. c #13334B",
"s. c #1B334A",
"d. c #1B394B",
"f. c #1E3344",
"g. c #0D2D51",
"h. c #0B3453",
"j. c #0D3659",
"k. c #0E3A5B",
"l. c #0C3853",
"z. c #143553",
"x. c #133A55",
"c. c #133B5C",
"v. c #1C3B5B",
"b. c #183756",
"n. c #112F53",
"m. c #332A40",
"M. c #233642",
"N. c #2A3B45",
"B. c #243D4C",
"V. c #2B3C4C",
"C. c #283745",
"Z. c #3B3D43",
"A. c #3B3B4B",
"S. c #333847",
"D. c #273A54",
"F. c #292D4C",
"G. c #0E3F61",
"H. c #143D63",
"J. c #1A3B62",
"K. c #1B3E6A",
"L. c #283C63",
"P. c #443D46",
"I. c #443E5B",
"U. c #4C3B67",
"Y. c #1A425C",
"T. c #2B404D",
"R. c #3D434D",
"E. c #364347",
"W. c #2B4454",
"Q. c #2B4559",
"!. c #344C5B",
"~. c #394D5E",
"^. c #354654",
"/. c #1C456B",
"(. c #194265",
"). c #1D4674",
"_. c #234364",
"`. c #26496D",
"'. c #334867",
"]. c #395367",
"[. c #294C72",
"{. c #244C7A",
"}. c #275379",
"|. c #3C5577",
" X c #324A72",
".X c #4C4544",
"XX c #464549",
"oX c #574845",
"OX c #5D534E",
"+X c #484856",
"@X c #4A535A",
"#X c #56555A",
"$X c #564D57",
"%X c #655655",
"&X c #6A5750",
"*X c #776458",
"=X c #544865",
"-X c #445769",
";X c #5A586A",
":X c #485979",
">X c #595677",
",X c #4E486F",
"<X c #61576A",
"1X c #6A5B77",
"2X c #596366",
"3X c #6A6568",
"4X c #756869",
"5X c #747077",
"6X c #85766C",
"7X c #1E5388",
"8X c #204D82",
"9X c #265487",
"0X c #295995",
"qX c #3E5E8D",
"wX c #386590",
"eX c #295CA6",
"rX c #2963A5",
"tX c #2B68B3",
"yX c #3666A5",
"uX c #4A5487",
"iX c #587C9D",
"pX c #4D6587",
"aX c #766787",
"sX c #6E6995",
"dX c #4C74AB",
"fX c #607CA3",
"gX c #4A7CC1",
"hX c #827491",
"jX c #718EB1",
"kX c #7AA1C0",
"lX c #6A94CD",
"zX c #83828A",
"xX c #8283A2",
"cX c #84A3BF",
"vX c #9CB3DC",
"bX c #A5C1D9",
"nX c #AED1F1",
"mX c #9AC4EC",
"MX c #C4DBEC",
"NX c #C8E1F3",
"BX c #D4E6FF",
/* pixels */
"= = @ @ @ @ @ @ : : 5 5 5 5 5 5 x z 7 z z * 2 2 7 ; 2 2 < 2 2 d d d 2 1 2 2 2 d f 3 f d N f j l k k k k k k k k k k k k f d s s ",
"5 : : = @ @ @ = = = = = ; 7 7 9 7 z 2 = 2 9 2 < * z 2 2 2 < 2 < < 2 3 2 2 3 1 3 f 3 k d m d k k k k k k k k f f f f f f f f s s ",
": # = @ = = = : 5 5 5 < 2 2 7 z 9 ; 7 < < 9 < = < 3 2 2 2 < < < < < < , , 1 1 1 f 2 d f j d k j M M m k j j f f f f f f s s s s ",
"@ @ @ @ = = : 7 7 z z z 7 2 2 2 < = 9 5 @ = 7 F 9 2 7 ; = 7 z b G F R ~ %.%.~ %.W ! E I H v M H M m m j j j f f s s s s s s s 1 ",
"@ @ @ = = : 7 9 n z z z 7 2 < < < 9 @ 5 / :.#X5X;X+XZ.#X3X@X+X,XuXuXuX X XL.D.D.e.s.w.9.J E E P H N M k j f f f s 1 s 1 1 s s s ",
"@ @ = = : : 7 7 z z 7 7 < < % % 5 @ 5 >.` Z.#X;X>X+X;X5XzX;XF.>X'.'.D.s.w.J j g k N N m R W Y j M j j j k k d f s s s 1 s 1 s s ",
"@ @ = : : ; ; 7 7 7 : = @ @ % % 5 O / P._ b A.;XxXsXI.+X+X..e.e.Y ! ! W U k d g ` j k f :.T D g k k f f f h d f s s s s s s s s ",
"@ @ : 5 5 ; ; 7 @ @ # # @ @ # # 5 5 / [ $XO.O.,X,X,X>XsX+Xn R Q v Y J k k k ! C.2.D G c 5.x ' A.Y C k k k d f s s s s s s s s s ",
"5 = = : 7 : = : : @ @ 5 @ X % @ X 0 :.c .._ _ >XsXsX,XF.C e.! v A A D T $.=.[ ,.3.,.=.F Z.( P.Z.1.&.2.M.d m j d 1 f 1 f s s d d ",
"= 5 7 7 > 7 5 = @ 5 O @ 5 5 X %   e [ ..8 / +.m.b O.2 3 G x x G T T %.*.%.' ) ;.<.&.T ;.&.N.Q E.S.+X' 4..._ k 1 k k s s f k - d ",
": : 7 9 > = = : = 5 5 %   @ % 5 / 4._ > 5 [ +.z = + < G G G G G F v ! Y D D A X.+XXXXXR.&.XXZ.V.&.@.E .X! <.' @.s - j s s j j s ",
"> = > 7 ; @ @ @ 5 # # # 6 r [ @.[ ) 8 5 b ) 0 z b x F T T T C T G v k j A U U W A.S.O.$X$XF S... .oXS.;.$.G -.>.F F d f s j s k ",
"= 5 7 = O @ @   . . e | <.<..X_ 0 ..c 9 b z = b ) X.G F v d T v A Y Y W U H I 9.K 0.m W e.L L N $XR.N.R 2.) oXQ :.$.F d k s M k ",
"= : : = @ O X $ | &X4X&X5.] P.#X;.c b O.; ; +.Z.) ) x G F x g D J W W f.W m w.a.wXY.P q.q.b.w.q.V.J L k :.#X-.Z.-.:.E.1 k M k l ",
"; ; = = : X 6 -.*X6X6X*X5.oXoX.Xo.c b b z O.A..XZ.b b T d D k k A ! W W M j 9.9.Y.c.Y.|.'.q.[.B.j 9.r.L I @X$.,.>.5XG k k f k M ",
"= 7 = @ : # } OX5.6.*X&X5.*X%X$X:.Z #.r #.I.XX$X3X#X) G d k Y Y Q V.~.D.W W a.a.J.L.:XfXkX[._._.E y.p.I -XP.W M.$XO.v ! M j M j ",
"5 7 ; = = 6 { { 2.,.,.oXoXoX%X4X;X+Xm.#.=X1X3X3X6X4XXXd v k J ! D.pX:X|.[.j.H./.9XjXMXNXnXkXv. X0.7.s.V.^.M.w.7.E.+XO.S.k j J l ",
"7 7 > : O 6 } y { a i OX3.{ %X4XhXaX=X1XhXaX5X#X.XXX&.D k Q Q V.:X:X|.v.J.`././.pXvXBXBXnXnXqX|.a.7.L L V.!.^.~ E V.C.%.Q J V B ",
"9 o ; : O $ } y 6 i } a a oXoX%X1XaX>XaXhX<X=XA.XXZ.X.R D Q f.~.].'.'._.J./.[.}.iXbXnXNXnXmXiX:X9.q.q.7.s.V.+X@XF.e.E W Q Q B B ",
"= : 7 =   [ 4.r e } } ] a 3.oX%X<X=XU.>X;X<X;X+XZ.S.C.Y Q W.!.~.Q.Q._.`.(.z.(.[.qXcXMXNXnXnXiXc.r.7.q.7.7.N Q S.2X-Xe.t.L ! E V ",
"> 7 o @ X %X<.$ 6 y y %XOXt { <.+XP.=X>XA.XXR.S.&.X.%.Q V.W.W.w.W.Q.!.v.z.z.x._.dXfXkXnXmXdX).K.b.r.7.7.7.7.L B E.2X@XC.L P M v ",
"@ = : @ # 4.y 6 & $ 6 <.oXy t [ P.;.m.A.S.&.X.X.F %.^.V.C.C.B.B.W.W.d.w.a.a.c._.}.wX9X0XyX0X}._.t.t.7.P K 7.7.7.B S.#XZ.W 7.N C ",
"7 : :   i oX6 6 $ $ 6 { <.6 / Z Z #.o.o.&.b G ..R.@X^.C.C.!.W.B.!.d.H 9.z.0.x.c.{.}.dXeXeX9Xk._.a.r.L 9.P 7.K 9.t.Y R.E.Q t.B V ",
"= = O . ] OX$ [ 6 ] 6 r oX] 8 Z _ / o.) b +.R.R.R.N.*.N.T.T.W.-XW.U d.x.u.k.k.}.wXyXgXlXyXyX9XJ.a.9.8.7.7.L H U 7.7.w.t.E Q E L ",
": : O . ] [ X ( i 6 i { oX[ 5 9 c 5 0 ` $.E.+XXX*.%.R B.B.B.].Q.9.p.d.z.g.k.7XrXtXtXtXtXrX9X9X).b.r.9.9.7.7.L L 7.7.7.w.t.L L N ",
"@ @ $ . { i X 5 r t u 6 { [ @ 0 q / ` ` o.$.X.X.R D N.T.B.Q.B.I 9.d.x.0.J.{.0XrXtXtXeXeX0X8X{.).J.z.p.w.7.N L L 7.7.7.7.L L E B ",
"@ . $ $ -.6 X # ( r | r ( ( 0 0 / ` ` G G F F X.R ^.~.!.W.!.I I 9.b.v.q.[.9X0X0XrXrX0X9X).K.`.`._.b.p.s.w.7.L L L 7.L w.w.L L B ",
"$ X X 6 [ X @ # ( e -.| e ] =.` ` / 0 9 x G %.T.V.!.!.W.].d.I U 9.b.c.0.[.{.9X7X9X9X)./.c.z.v.v.v.a.w.w.e.w.L B L L 7.w.w.E B M ",
". # $ t r X @ @ 6 r ( -.-.-./ q 0 9 c F G F ~ N.T.C.B.!.Q.J W I p.z.x.u.Y.).8X7X9X{.).J.a.9.r.r.r.r.r.W U L L 7.P L L L L B M C ",
"O @ $ <.t # $ 0 q ( i r -.] ( 0 9 c x x X.%.~ M.M.T.W.!.I I I w.y.z.x.x.c./.).).8X).).J.b.r.0.0.q.r.r.r.p.w.L B L N L L L J M k ",
"@ . 6 2.t 6 6 ( [ -.| ] ( p q q ' ) 9 d R M.M.M.C.B.B.I I p.w.I u.u.k.(.H.(.(.H././.K.J.b.z.r.r.0.r.n.b.D.d.L m N N L B L E k k ",
"@ # ( { & e e e ] t ] 6 r q ` :.;.G x G D ~ C.%.V.! W p.I I p.p.c.x.k./.H.u.i.H.x.x.x.h.y.y.I I 0.0.g.b.v.s.L L N M N m V Y k k ",
": . [ [ # 5 6 r t [ [ t u a &XOX;.c F X.F T Q Q U W W w.I 9.9.y.c.c.G.G.k.h.0.0.p.9.0.i.0.q.q.9.0.0.z.h.v.s.U k k k m m m L M f ",
"X & <.e # 5 e 6 { -.] 2.oX*X4X3X&.F ..R F ! Q ! U W W I I 9.p.p.k.k.k.k.k.h.0.y.r.0.0.i.i.0.0.q.q.0.u.0.z.w.J f j V N N N L M f ",
"O e -.& # @ 5 & ( [ 1..XoXOXOX.X..R X.R Y ! ! ! U W I U K I p.y.j.c.k.k.k.l.u.y.u.0.h.l.h.u.y.9.8.0.0.q.p.I k f f V N B L L J k ",
". Z [ & : @ @ e 6 8 / ( <.4.1.` F R R T Y Y Y ! W W I U K I I 9.u.l.k.h.h.h.i.i.h.h.h.h.i.0.9.9.9.9.9.9.w.U j f f m B L L L M k ",
". { { # : : # 6 8 8 8 _ <.OX1.=.v T T Y Y J J ! ! U J I I K P I 9.a.z.u.h.h.h.j.j.j.h.h.q.8.8.P 9.9.P W W J f f f m B L N N M f ",
"@ | [ @ : @ @ # 8 9 / #.1.:.=.;.v T D D Y k k Y Y J J U I K H I I p.a.a.z.k.k.G.c.k.l.i.8.8.9.I 9.I H J Y k s f j j N K N N k f ",
"@ / e $ @ O @ # @ O 7 r [ ( =.;.g Y k k Y A A k k k m H L L H H K I I 9.a.u.h.h.k.h.i.8.8.P I P P I j k k k s f j j m H m M k f ",
"5 ( & #   @ O . @ : 9 ` [ @.o.T d D g k Y Y Y k k k m m H L H j L L L 9.a.y.8.8.i.q.8.K K K L H L I k f 1 f s f j j m m m N M k ",
"5 8 5 @ @ @ O   O @ = r =.;.o.X.g g g k ! Y k k k k j m H J H H J J J J w.a.a.9.P K K H H H J P W J j f s s s f j m m j k k k k ",
": 8 : @ O @ @ o O @ = 0 ` o.) X.g k k Y ! ! Y A k k j j H H H S j j S j H L I 9.K H m j m H J H J j f s s f j j j H m j k k j j ",
"# : # O O @ O o o o O 5 _ o.F F v g k Y Y Y Y k k k j j H H H j j j j s f j J J L H j j j J J j j f s s f j j j m H j j k j f j ",
"@ : @   o @ @ O : = = 9 ` ;.o.F D k k Y k J Y k k j j j j S S j H j s s f f j j A A k j k k k s s s s f j j j j j j j j k f f j ",
"@ : @ O O = @ @   O @ = 9 o.o.X.T D Y Y k M Y k k j j j j j j j j j f f s 1 1 s s s s s s f f s s f f f j j j j f f f k k j s j ",
"@ : @ O O @ @ @ : 5 5 5 9 ) F x F D D D k k k k k k k j f j j j f s s s s 1 1 1 1 1 s s s s s s f j f f f j j j j j j k k j f j ",
"# : @ O @ = @ @ o o + < c ) ) x v F D k k k k k A A k k g k j f f s 1 1 s s 1 1 1 s s s s s s s j j j j f j k k f k k k k f f f ",
"> 5 = @ = = = = 5 ; ; 7 7 c F F x F D k k k j k Y Y D A k k j f s f f 1 1 1 1 s 1 1 s s f f f f j j j j j f f f s f f s f f s f ",
"= : 5 @ : : 5 = = = = = 7 9 z c x x F T D g g D g f f j j k f f f d 1 1 1 1 s s s s s f f f f j f j j j m H j j j k j s s f f s ",
"= : : @ @ = : ; = ; = + = = 2 7 x x G T T D k g f k k k k k f s d f 1 1 1 s s s s s 1 f f f f j f j j j m H m m j j j s s f f f ",
"@ : : 5 @ = @ = = ; = + + = < 9 c x d d f f k k f k k k k k f s f s s 1 1 s s s s s s f f f f j j j j j m H m m j j f s s s s s ",
"@ = 5 5 : = @ = = ; = = = = 2 9 9 3 x x g f f f j j j j f f f f s s s 1 1 s s s s s s s s f f f f f j j m m m m j j f f f s s s ",
": : 5 5 : @ @ = @ = = + + + * < 2 2 x x g f f s j k j f s f s s f s s s s s s s s s s s s s f f s f j j j j j j j f f f f 1 1 s ",
": = 7 5 5 @ @ @ @ @ @ + + + + * 3 < 2 3 d g f f f f k d s s s s f s s s s s s f f f f s s f f f s f j j j j j j f f f s f 1 1 s ",
": : 5 5 9 5 @ O @ @ @ + = = * = 2 < 3 x x x k f f f f d s s s s f s s d s s f j j j j f f j f f s s f j j j j j f f s s 1 1 1 f ",
"7 7 : 5 5 5 = @ @ = @ + + o + * = 2 2 2 2 3 x D k g f 2 1 1 s f f s s d d f j k j j j j j j j f s s f j j j j s f f s 1 1 1 1 d ",
"7 7 7 7 5 ; = @ @ @ = = @ + + + = < 2 2 2 2 2 2 3 2 1 1 s s s s f f 1 1 1 s f j j j j j j j f s s f f f f f f f f s s s 1 1 1 1 ",
"7 7 7 7 7 5 ; = O O @ @ + + * * = < 2 2 2 2 2 2 2 2 1 1 s s 1 1 s s 1 1 1 d j S j j j j j f f s f f f s s f f f s s 1 1 1 1 1 1 ",
"5 5 7 7 7 5 5 : @ o o + @ + * = = = < < 2 , , 2 2 2 d d s 1 1 1 s 1 1 1 2 d f k j j j j j f j k f f s s s s s s 1 1 1 1 1 1 1 1 ",
"= : 5 5 5 : : : ; @ o @ @ + + = = = = = = * * , 2 2 2 1 1 1 1 d 1 1 1 1 - 2 d f f j j j j k k k s 1 1 1 1 1 s s 1 1 1 1 1 1 1 1 ",
"= : 5 5 5 : : : 5 = @ @ @ o o + + = * = = * * * * , 2 1 1 1 1 1 1 1 1 1 - - 1 1 s s s s f f s s 1 1 1 1 1 1 1 1 1 1 1 1 1 1 1 1 ",
"5 5 5 5 5 5 5 5 5 = @ @ @ + + + + + * * = = * * * * 2 2 1 , * * 2 , , * * * * 1 1 1 1 1 1 1 1 - 1 1 1 1 , 1 1 1 1 1 1 1 1 1 1 1 ",
"5 5 5 5 5 5 5 5 : : = @ @ + @ @ + + + * * * * * + * < 2 2 , * * * * * * * * * * , * * 1 1 1 1 * 1 1 1 , 1 1 1 1 , , , * , 1 1 1 ",
": ; = ; : 5 : ; = = = @ O + @ + + + + + + + * + + * * < = = = = * * * * * * * * * * * * * * 1 , * 1 , 1 1 1 4 4 1 1 1 , , 2 2 2 "
};
