/* XPM */
static char *d90a7957e01e4ca89ee78fe73a975b17TcpeKag4p9bToYzk[] = {
/* columns rows colors chars-per-pixel */
"64 64 256 2 ",
"   c #020202",
".  c #0B0401",
"X  c #0B0B04",
"o  c #020B0C",
"O  c #0C0D0B",
"+  c #060608",
"@  c #160A07",
"#  c #091509",
"$  c #161607",
"%  c #050818",
"&  c #160717",
"*  c #081617",
"=  c #121313",
"-  c #1B1B1B",
";  c #171817",
":  c #290706",
">  c #3B0405",
",  c #281405",
"<  c #361607",
"1  c #271A17",
"2  c #2F0D14",
"3  c #1D2705",
"4  c #18231A",
"5  c #0D2A13",
"6  c #282505",
"7  c #3D3C05",
"8  c #24251A",
"9  c #392B10",
"0  c #060928",
"q  c #160A26",
"w  c #041A24",
"e  c #161527",
"r  c #060A38",
"t  c #16173A",
"y  c #0F1235",
"u  c #371B27",
"i  c #29132D",
"p  c #042829",
"a  c #182927",
"s  c #19342A",
"d  c #08383B",
"f  c #0D2C35",
"g  c #2B2B2B",
"h  c #262625",
"j  c #372929",
"k  c #26352C",
"l  c #392936",
"z  c #293835",
"x  c #343434",
"c  c gray23",
"v  c #393736",
"b  c #37362C",
"n  c #490505",
"m  c #550504",
"M  c #451505",
"N  c #561506",
"B  c #580A15",
"V  c #521517",
"C  c #6C0303",
"Z  c #650507",
"A  c #760505",
"S  c #681702",
"D  c #761806",
"F  c #700E15",
"G  c #492406",
"H  c #51300F",
"J  c #702F11",
"K  c #540A2B",
"L  c #71122F",
"P  c #49352D",
"I  c #482A38",
"U  c #493234",
"Y  c #563130",
"T  c #673326",
"R  c #114811",
"E  c #30470D",
"W  c #1B4834",
"Q  c #2A4439",
"!  c #374739",
"~  c #32573D",
"^  c #236D35",
"/  c #186032",
"(  c #4F4D07",
")  c #72450A",
"_  c #524C32",
"`  c #77512F",
"'  c #676716",
"]  c #141747",
"[  c #0A104A",
"{  c #0C3940",
"}  c #383A46",
"|  c #302850",
" . c #101862",
".. c #4E3442",
"X. c #064445",
"o. c #144A4C",
"O. c #374944",
"+. c #265648",
"@. c #315051",
"#. c #35746B",
"$. c #225961",
"%. c #494848",
"&. c #455956",
"*. c #575857",
"=. c #524E4A",
"-. c #6C4F4D",
";. c #486559",
":. c #5A645B",
">. c #69635D",
",. c #545863",
"<. c #496C64",
"1. c #576A68",
"2. c #59756C",
"3. c #4B766E",
"4. c #676867",
"5. c #677A76",
"6. c #737474",
"7. c #7A7B79",
"8. c #736E6D",
"9. c #860504",
"0. c #960505",
"q. c #881C0A",
"w. c #981903",
"e. c #920D16",
"r. c #A60804",
"t. c #B80504",
"y. c #AB1606",
"u. c #AA1316",
"i. c #8A2603",
"p. c #992406",
"a. c #983705",
"s. c #923116",
"d. c #B82509",
"f. c #B83906",
"g. c #A93109",
"h. c #93102F",
"j. c #882D25",
"k. c #C70506",
"l. c #D00903",
"z. c #EC050C",
"x. c #D13008",
"c. c #DB3518",
"v. c #90510A",
"b. c #B04E0C",
"n. c #AF6806",
"m. c #924E2F",
"M. c #B15034",
"N. c #B06933",
"B. c #887005",
"V. c #C9500E",
"C. c #EE500C",
"Z. c #DA6803",
"A. c #CE7308",
"S. c #F56604",
"D. c #EF6E08",
"F. c #CC5028",
"G. c #D86E24",
"H. c #EF7236",
"J. c #AF1948",
"K. c #9E1946",
"L. c #885552",
"P. c #B1524B",
"I. c #AA6C53",
"U. c #887270",
"Y. c #9E6666",
"T. c #CF6C51",
"R. c #CF574A",
"E. c #319337",
"W. c #2E8F50",
"Q. c #19996A",
"!. c #5A8679",
"~. c #4F857D",
"^. c #63877D",
"/. c #7B8275",
"(. c #6CCA75",
"). c #9A9106",
"_. c #F18F09",
"`. c #D5813C",
"'. c #DEA316",
"]. c #96855A",
"[. c #8C816D",
"{. c #B3935D",
"}. c #CEB47A",
"|. c #F5B270",
" X c #E39350",
".X c #91C665",
"XX c #E1D05B",
"oX c #051A85",
"OX c #787D81",
"+X c #8C7086",
"@X c #338D89",
"#X c #57938B",
"$X c #788984",
"%X c #75948B",
"&X c #6F9089",
"*X c #5AA995",
"=X c #77A399",
"-X c #6CAE92",
";X c #74B4A9",
":X c #78CCA6",
">X c #868786",
",X c #969898",
"<X c #8F968E",
"1X c #85A698",
"2X c #94A69E",
"3X c #9AA7A1",
"4X c #90AFAA",
"5X c #A4A4A3",
"6X c #ADAAA9",
"7X c #B5B5B4",
"8X c #BABAB9",
"9X c #B0B2AC",
"0X c #AA9D8D",
"qX c #C4A69A",
"wX c #C6B9B4",
"eX c #EFB087",
"rX c #8FC9B7",
"tX c #AACDB7",
"yX c #C4C5BA",
"uX c #D9CEBA",
"iX c #EECCA3",
"pX c #AACBC5",
"aX c #BCC9C7",
"sX c #A6D4C9",
"dX c #B7D4CB",
"fX c #B7D5D1",
"gX c #97D2C7",
"hX c #C7C8C6",
"jX c #D6CDC8",
"kX c #C5DDD7",
"lX c #DDDDDC",
"zX c #D5D4D3",
"xX c #CCD4CC",
"cX c #E7D7D1",
"vX c #D0ECDA",
"bX c #E7E4DC",
"nX c #F6E5DD",
"mX c #D5EEE7",
"MX c #E4E4E4",
"NX c #EAEAE8",
"BX c #F7FAEC",
"VX c #F5F5F5",
"CX c #F5FEF3",
"ZX c #FCFCF6",
"AX c #FDF6FB",
"SX c #F5FEFD",
"DX c #FDFDFD",
"FX c gray99",
"GX c #FEFEFE",
"HX c white",
"JX c #FEFFFF",
"KX c #FEFDFE",
"LX c #FEFEFE",
"PX c #FCF5F6",
"IX c #EFEEEC",
"UX c #DDDAEB",
/* pixels */
"HXHXHXHXHXHXHXHXHXHXFXHXHXHXHXHXHXHXHXHXHXHXFXHXHXHXHXHXHXHXHXHXHXFXHXHXHXHXHXHXHXHXHXHXHXFXHXHXFXHXHXHXHXHXHXHXHXHXHXHXHXHXHXHX",
"HXHXHXHXHXHXHXHXHXFXHXHXHXHXHXFXHXFXHXlXNXHXFXHXHXFXHXFXHXHXFXHXFXHXFXHXHXFXHXHXHXHXFXlXlXHXFXFXHXFXHXHXFXHXHXHXHXHXHXHXHXHXHXHX",
"HXHXHXHXHXHXHXHXFXHXHXFXHXHXFXHXHXHX,X>XHXHXHXHXHXHXHXHXHXHXHXFXHXHXHXHXHXHXFXHXFXHXHXFX4.,XHXHXHXFXHXVXHXHXHXHXHXHXHXHXHXHXHXHX",
"HXHXHXHXHXHXHXHXHXHXHXHXHXHXHXFXFX*.c MXNXHXHXFXHXHXHXHXHXHXHXHXPXKXHXFXFXHXHXHXHXHXFXHXzX  *.zXVXHXHXHXHXHXFXHXHXHXHXHXHXHXHXHX",
"HXHXHXHXHXHXHXHXHXHXHXHXHXHXFXMX4.O 8X%.7.- g 6.=.; - =.<X  9XNXO 5XFX*.*.HX5X  hX,Xh   7.g + 6.MXHXHXHXHXFXHXHXHXHXHXHXHXHXHXHX",
"HXHXHXHXHXHXHXHXFXHXHXHXHXHXHXNXg x = h 7XO %.>XhXx c MX>XO x MXx <XHX=.  lXhX; <Xx   7.7Xc = 4.HXFXHXHXHXHXHXHXHXHXHXHXHXHXHXHX",
"HXHXHXHXHXHXHXHXHXHXHXHXFXHXMXc +   + >X*.*.%.hX5Xx MX>X=.x =.FX7.x HXzX  ,XHX*.x *.  xXHX5XO ; x xXHXHXHXHXHXHXHXHXHXHXHXHXHXHX",
"HXHXHXHXHXHXHXHXHXHXHXFXHXHX- 8.lXx + ,X  ; 4.HXc   hX  O   h HXx   *.6.  h 6.h   ,X    = >X= O   O VXHXHXFXHXHXHXHXHXHXHXHXHXHX",
"HXHXHXHXHXHXHXHXHXHXHXFXHX%.g HXMX+ g hX8.:.8.HX<X>X8X4.IX5X4.FX3X4.,.,X>X*.6.,X4.VXzX8.} 9Xx - lX= c HXHXHXFXHXHXHXHXHXHXHXHXHX",
"HXHXFXHXHXFXHXHXHXHXHXHX7.  VXFX8...NXHXHXHXHXHXAXHXSXCXFXHXKXKXLXZXHXLXHXHXHXHXFXFXHXFXHXHXMXh hXHX  4.KXHXHXFXHXHXHXHXHXHXVXHX",
"HXHXHXFXHXHXHXHXHXFXHX9X  7XFXHX8XFXHXHXVXHXHXFXLXBXHXFXLXHXZXZXbXZXZXLXNXZXFXKXSXHXKXHXPXHXHXIX7XFX8X  5XHXVXHXHXHXHXHXFXHXHXHX",
"HXHXHXFXHXHXHXHXFXHX4.  lXHXHXHXHXVXHXFXHXHXHXHXSXZXKXnX0XuXuX5X_ _ <X9X>.hX5XlXHXHXHXAXHXFXFXFXHXHXHXc   lXHXFXHXHXFXHXHXHXHXHX",
"FXHXFXHXHXHXHXFXHX7X  7.zXVXHXHXFXHXHXHXHXHXFXPXHXbXqX].9 , 9 ; @ . . $ @ v X %.8XSXHXHXHXFXHXFXHXFXMX7X  6.FXHXVXHXHXFXHXHXHXHX",
"HXHXHXHXHXHXVXHXzX+   4.lXFXHXHXFXHXHXHXPXLXLXhX=.b P P @ @ @ 1 = = O X $ X ; k &XmXSXVXFXHXHXKXHXHXVX>X-   7XHXHXHXHXHXHXHXHXHX",
"HXFXHXHXHXHXHXVXe   4.VXHXHXHXHXHXVXSXZXLXbX9X=.  0 q q q = e % w a a O.g O . = &.xXFXHXHXHXVXHXHXFXHXlXc h *.hXVXHXVXHXHXHXHXHX",
"HXHXHXHXHXFXHXc   5XHXHXFXHXHXHXFXHXHXLXLX6X@ . [ [ q q q e [ f y w { W s h j 1 ; *.FXFXHXSXFXSXHXHXHXHXHXHX6.  4.HXHXHXHXHXHXHX",
"HXHXHXHXFXHX*.O zXVXHXHXHXHXHXHXLXHXVXLXjX8 . = oX[ q q r [ [ % 0 w o a k k =.! %.@ wXKXCXHXLXSXHXHXFXHXFXHXFX7X  >XHXFXHXHXHXHX",
"HXHXHXHXHX>Xc FXVXHXHXFXHXHXHXHXHXHXHXbX_ . + 0  .r q q [ r 0 0 y w = - s Q 8 ~ ! 9 b NXSXCXHXLXHXHXHXHXHXFXHXFXlXg 9XHXHXHXHXHX",
"HXFXHXHX7X>XHXHXHXHXHXHXHXHXHXHXHXAXHX[..   0 [ [ q & 0 y r % ] f p e - +.s ; _ 1 ` _ -.HXSXHXKXHXHXFXHXHXHXHXFXVXVX6X5XFXFXHXHX",
"HXHXHXVXhXHXFXHXHXFXHXHXHXHXHXHXFXHXFX8   + 0 [ r e q 0 r 0 0 y q e g s f +.O.b 4 $ ` H 6XSXZXKXFXHXHXFXHXHXHXHXHXHXHXlXzXHXHXHX",
"HXHXHXHXHXHXHXHXHXHXHXHXLXHXHXHXFXHXzX    % 0 r q q q 0 0 0 e e a s z h e a a 1 1 & < m.L.PXZXFXHXHXHXHXHXHXHXHXFXHXHXHXHXHXFXHX",
"HXHXHXHXHXFXHXHXHXHXHXHXHXHXHXHXHXZX9X  + % 0 % q q q y r e i h j @.@.g h 1 j 9 H P 2 T T qXZXCXHXFXHXHXHXHXHXFXHXHXHXHXHXHXHXHX",
"HXHXHXHXHXHXFXHXHXHXHXHXHXHXHXHXFXHX7X. @ + + % e & q t t i g b v o.$.z g P T I.}.].Y < H L.AXZXHXHXHXHXFXHXHXHXFXHXHXHXHXHXHXHX",
"HXHXHXHXHXHXHXHXHXHXHXHXHXFXHXHXKXHX7X. @ . + 0 q @ & e ] | j v } $.$.x 9 Y ].}.T.R.I.N J V U.NXHXHXHXHXHXHXHXHXHXFXHXHXFXHXHXHX",
"HXHXHXHXHXHXHXHXHXHXFXHXHXFXHXHXHXAX/.: M M , e : 1 V : i I l O.o.@.@.U Y m.{.c.z.c.j.B J < 9.u.6XKXSXSXHXHXHXAXHXHXHXHXHXHXHXHX",
"HXHXHXHXHXHXHXHXLXHXHXHXHXHXHXFXBXHX-.=.` J T u 2 u Z e.M V U } @.O.=.-.m.M.2 > D q.t.9.M > F C m Y.ZXHXAXHXHXLXHXHXHXHXHXHXHXHX",
"HXHXHXHXHXHXHXHXHXHXHXHXHXHXHXHXSX5Xu +X-.V ) T Y u.J j.9.< ..Y ,.,.I.M.M.g.X G S G n n 2 , C k.e.C jXKXKXFXHXHXHXHXHXHXHXHXHXHX",
"HXHXHXHXHXHXHXHXHXHXFXHXHXLXHXLX<X% ] l >.T J U L u.k.V D B V q.j.Y.H.C.g.D M J a.D M & @ B F F : 8.HXLXHXFXSXFXHXHXHXHXHXHXHXHX",
"HXHXHXHXHXHXHXHXHXHXHXHXHXHXFX5Xq t 0 e I S T ..l L l.z.e.j.A A C F p.x.b.a.x.f.s.J D n m r.m : Y KXPXFXFXHXHXKXHXHXHXHXHXHXHXHX",
"HXHXHXHXHXHXHXHXHXHXHXHXFXHXlX1 0 r q % + @ < ] q i V u.F L L e.C Z Z 9.t.C.S.C.C.x.t.A 0.l.C > < yXHXFXHXPXSXLXHXHXHXHXHXHXHXHX",
"HXHXHXHXHXHXHXHXHXHXHXHXFXHXlXv t  .r i J D R.-.e q 2 K L L h.e.9.m n m 9.t.C.S._.x.C n 0.l.9.-.P.jXPXFXFXKXLXLXHXHXHXHXHXHXHXHX",
"HXHXHXHXHXHXHXHXFXHXFXHXHXLXHXhX|  .t i Y F.T.-.l - : K K.L F A 9.r.u.9.0.k.z.S.D.9.i.s.0.r.V 1 0XLXLXHXCXFXHXHXHXHXHXHXHXHXHXHX",
"HXHXHXHXHXHXHXHXHXHXHXHXHXHXHXHXzX] y i i ..-.} | g & K J.J.e.9.u.iXcXh.r.t.l.C.x.t.l.r.9.B . Y HXHXHXHXAXHXFXLXHXHXHXHXHXHXHXHX",
"HXHXHXHXHXHXHXHXHXHXHXHXHXHXHXHXUX] t e l u Y ..| l P B h.J.e.9.u.R.J.C A A f.a.p.A A A C @ X =.uXMXHXSXSXFXHXFXHXHXHXHXHXHXHXHX",
"HXHXHXHXHXHXHXHXHXHXHXHXHXHXHXHX8X% | | -.{.{.L.-.j _ T j.s.C A 9.0.C m N Z 0.q.J Z m A n & , : A ` yXZXFXHXSXHXHXHXHXHXHXHXHXHX",
"HXHXHXHXHXHXHXHXHXHXHXHXHXHXHXHXNXv e l Y.|.`.N.m.H ` m.s.b.p.e.A 0.9.C C q.S S N m 9.0.n . > T F t.u.cXSXKXZXKXHXHXHXHXHXHXHXHX",
"HXHXHXHXHXHXHXHXHXHXHXHXHXHXHXHXKXjX<XU.{.N.N.n.H H v.n.v.b.F.c.x.r.0.A y.d.N S S M m t.A G m.|.n A I.HXFXPXLXHXHXHXHXHXHXHXHXHX",
"HXHXHXHXHXHXHXHXHXHXHXHXHXHXHXHXFXHXLXZXiX) J ) $ , ) n.b.V.C.C.D.x.r.x.x.C : D g.i.> t.r.P. XJ m > -.HXZXLXFXSXHXHXHXHXHXHXHXHX",
"HXHXHXHXHXHXHXHXHXHXHXHXHXHXHXHXSXHXbX7._ B.H H @ . , J V.Z.D.x. X|.C.c.A > 0.x.C.c.B r.t.A > n n , h jXZXFXFXSXHXHXHXHXHXHXHXHX",
"HXHXHXHXHXHXHXHXHXHXHXHXHXHXHXHXBXNX9 + $ B.) 7 < $ X < v.V.Z.D._.|.H.k.d.r.A g.S.b.M 0.A m , B n > Y bXHXKXHXKXHXHXHXHXHXHXHXHX",
"HXHXHXHXHXHXHXHXHXHXHXHXHXHXHXHXLX/.X $ $ ( ( ( H G , : G v.Z.D._.D.x.y.x.y.i.w.n $ J C F B : < =.>XzXZXHXHXHXHXHXHXHXHXHXHXHXHX",
"HXHXHXHXHXHXHXHXHXHXHXHXHXHXHXHXFXb $ $   6 H 7 < H M n S a.V.D.S.x.w.g.p.p.9.A : 6 G F m G L.aXPXLXLXHXLXHXHXHXHXHXHXHXHXHXHXHX",
"HXHXHXHXHXHXHXHXHXHXHXHXHXHXHXHXbX8 $ $ 3 7 7 6 , : J s.N.`.Z.Z.p.9.r.r.u.0.w.A N . M 9.m.jXFXLXHXFXPXLXHXHXHXHXHXHXHXHXHXHXHXHX",
"HXHXHXHXHXHXHXHXHXHXHXHXHXHXHXHXjX$ O $ 6 ( ( H ) v.g.`.|.|.G.i.S 0.0.r.9.9.0.C M 1 D T.BXKXKXCXHXHXHXHXHXLXHXHXHXHXHXHXHXHXHXHX",
"HXHXHXHXHXHXHXHXHXHXHXHXHXHXHXHXMX. 1 jX_ E ( ( B.b.F.b.n.A.b.i.e.A g.R.P.P.{.T.P G M.HXHXFXSXLXHXHXHXHXHXHXHXHXHXHXHXHXHXHXHXHX",
"HXHXHXHXHXHXHXHXHXHXHXHXHXHXHXHXKX*.7XHXyX7 ( $ H D M.N.).n.n.b.d.d.G.`.T.eX|.T.J , uXHXAXSXHXHXHXHXHXSXHXHXHXHXHXHXHXHXHXHXHXHX",
"HXHXHXHXHXHXHXHXHXHXHXHXHXHXHXHXLXLXHXFXHX0X6 O + , < ( ).B.A.C.C.r.y.H. X XF.G.j.U BXKXHXPXLXKXSXHXHXHXHXHXHXHXHXHXHXHXHXHXHXHX",
"HXHXHXHXHXHXHXHXHXHXHXHXHXHXHXHXHXZXZXFXFXCX8 X X + + 6 ' '._.Z.C.x.r.l.c.f.e.s.N 4.ZXHXCXHXSXLXHXHXHXHXHXHXHXHXHXHXHXHXHXHXHXHX",
"HXHXHXHXHXHXHXHXHXHXHXHXHXHXHXHXHXHXFXSXHXbX4 # # . @ + 3 ).'._.Z.V.f.g.w.w.D V < 9XSXKXHXLXLXFXHXHXHXHXHXHXHXHXHXHXHXHXHXHXHXHX",
"HXHXHXHXHXHXHXHXHXHXHXHXHXHXFXHXPXHXVXHXHX8X# 5 4 X X X o 3 ' )._.Z.a.v.g.s.s.s.j.wXHXHXHXHXHXHXHXHXHXHXHXHXHXHXHXHXHXHXHXHXHXHX",
"HXHXHXHXHXHXHXHXHXHXFXHXFXHXHXHXHXHXHXPXHX4.# s 3 3 # X $ O O 3 ' ).A.G.G.G.F.F.P.qXZXFXHXSXFXHXHXHXHXHXHXHXHXHXHXHXHXHXHXHXHXHX",
"HXHXHXHXHXHXHXHXHXFXHXHXFXFXHXHXLXHXVXHXwXO a W 5 5 # # X X O = o E XXXXXX XH.T.Y.uXCXPXFXHXFXFXHXHXHXHXHXHXHXHXHXHXHXHXHXHXHXHX",
"HXHXHXHXHXHXHXHXHXHXHXHXFXHXHXHXLXHXHXjX; # s ~ ^ W 4 4 $ O = @ $ O ' .XXX{.{.].! *.lXHXHXLXHXHXHXHXHXHXHXHXHXHXHXHXHXHXHXHXHXHX",
"HXHXHXHXHXHXHXHXHXHXHXFXHXHXPXPXLXHX5X+   z Q W ^ ^ / R R R s 4 1 8 e # R +.o.5 a ; = 6.MXHXLXLXHXHXHXHXHXHXHXHXHXHXHXHXHXHXHXHX",
"HXHXHXHXHXHXHXHXHXHXHXHXHXPXHXLXzX%.  O v *.@.@.#.W.W.W.W.E.E.^ / R 5 p o.o.o.d ; g h X 8 >XIXLXFXHXHXHXHXHXHXHXHXHXHXHXHXHXHXHX",
"HXHXHXHXHXHXHXHXHXHXFXHXHXFXMX4..   O ! 6./.1.;.3.#X*X-X-X.X(.(.(.Q.Q.@X#X~.#.@.! a k z h = 4 >XMXVXHXHXFXHXHXHXHXHXHXHXHXHXHXHX",
"HXFXHXHXHXHXHXHXFXFXLXZXNXU.;   . - O.^.=X&X5.5.!.%XtXvXvXmXvXvXsX:X*X-X-X#X#X3.;.Q Q ! z k * o ; 4.yXHXFXFXFXHXHXHXHXHXHXKXHXLX",
"HXHXHXHXHXHXHXPXHXLXNX>X;     ; a O.5.&X=X&X%X%X=X1XxXbXNXCXmXvXrX:X:X;X-X#X~.~.2.@.;.;.O.Q * p 4 o   c 9XFXHXKXFXHXFXFXHXHXHXHX",
"HXHXHXHXHXSXZXLXBX<X8   o o * a O.<.^.=X=X=X&X1X1X1XtXkXmXkXsXsXrXrX4X1X=X=X#X3.2.;.<.;.&.s * o 4 * O     x 6XKXFXFXLXHXSXHXHXSX",
"HXHXHXFXLXLXLX5Xh   X a e * 1.$X%X4XpXpXpXfXpXfXfXaXdXkXpXfXmXkXsXsXdXpX7X4X%X9X2X3X<X3X3X5.5.1.$XO.o = * +   v 8XKXHXFXHXVXHXHX",
"FXHXHXLXLXyX>.@ + ; ; * * * <XhXhXxXhXaXaXkXfXkXkXdXkXkXrXpXkXmXsXdXmXfXpX4X3XhXxX,X3X3XxX3XaXOX5.c + * * * * o   =.xXVXHXHXFXHX",
"FXHXPX<Xx ; - h a o o o * * z :.8.7.6.$X4.5.1.$X$X4XrXrXgXrXrXgX;X=X4X1X4X^.5.7X2X1X1X1X1X5.<.&.&.s f p p p p f w % + 1.lXFXHXKX",
"LXhX_   - s s s a a a k a * a Q O.;.2.2.2.1.&.O.&.2.~.*X;X#X*X*X#X3.3.3.&X$X&X&X^.^.^.!.<.W p p w p f o.X.d X.d d f *     8.MXFX",
"6XO   g k O.+.+.Q O.Q z a z O.@.!.!.^.&X^.^.5.1.2.$X5.<.#.@X#.$.#.1.2.^.$X1X=X!.!.<.<.3.@.d o.o.d p p X.X.X.X.o.X.d p * +   = 5X"
};
