/* XPM */
static char *_08e3b7d07a748ffbcd35234838495f6bkme31Aoa40ELLjs[] = {
/* columns rows colors chars-per-pixel */
"64 64 256 2 ",
"   c #080605",
".  c #151515",
"X  c #1A0F08",
"o  c #371809",
"O  c #29190F",
"+  c #392517",
"@  c #342315",
"#  c #352925",
"$  c #3C332C",
"%  c #393839",
"&  c #302B2B",
"*  c #4D160C",
"=  c #651502",
"-  c #472618",
";  c #583419",
":  c #492D11",
">  c #6E2F18",
",  c #47342A",
"<  c #553727",
"1  c #463C35",
"2  c #553A35",
"3  c #4E2923",
"4  c #6C3332",
"5  c #354C39",
"6  c #4C433B",
"7  c #474339",
"8  c #55463C",
"9  c #56492F",
"0  c #694939",
"q  c #714D34",
"w  c #6F491F",
"e  c #353B59",
"r  c #343C52",
"t  c #363E65",
"y  c #433E41",
"u  c #443E58",
"i  c #385B46",
"p  c #37425A",
"a  c #364B4B",
"s  c #396747",
"d  c #364568",
"f  c #354C76",
"g  c #2E4972",
"h  c #494747",
"j  c #574A45",
"k  c #5D534B",
"l  c #595248",
"z  c #474757",
"x  c #595658",
"c  c #4E4F56",
"v  c #664C47",
"b  c #63534C",
"n  c #68564C",
"m  c #795849",
"M  c #645A53",
"N  c #685B57",
"B  c #745C59",
"V  c #73494D",
"C  c #4F6C51",
"Z  c #6B625C",
"A  c #696459",
"S  c #76645B",
"D  c #6F6C51",
"F  c #454567",
"G  c #56586D",
"H  c #645F63",
"J  c #74576A",
"K  c #6C6464",
"L  c #686667",
"P  c #736562",
"I  c #746D6B",
"U  c #7A6D6A",
"Y  c #776864",
"T  c #7C726D",
"R  c #75736A",
"E  c #686B74",
"W  c #7B7573",
"Q  c #787679",
"!  c #766F72",
"~  c #5F6C76",
"^  c #9E3828",
"/  c #9A5439",
"(  c #904A34",
")  c #B9563C",
"_  c #AE4C34",
"`  c #96683E",
"'  c #865848",
"]  c #975946",
"[  c #875A56",
"{  c #9A5857",
"}  c #934C4A",
"|  c #A85846",
" . c #B75848",
".. c #AC554F",
"X. c #86634C",
"o. c #866757",
"O. c #96785A",
"+. c #936B53",
"@. c #B96555",
"#. c #AE6A50",
"$. c #866A66",
"%. c #877469",
"&. c #977767",
"*. c #847D7C",
"=. c #8B7D7A",
"-. c #867874",
";. c #987B75",
":. c #926D6E",
">. c #A67966",
",. c #AE736B",
"<. c #935C69",
"1. c #C65A49",
"2. c #C56B54",
"3. c #74896F",
"4. c #578062",
"5. c #8C827C",
"6. c #83827A",
"7. c #93837C",
"8. c #988678",
"9. c #8E8E74",
"0. c #B68869",
"q. c #A78778",
"w. c #B08E72",
"e. c #AF875B",
"r. c #C79778",
"t. c #CF9272",
"y. c #D0A37B",
"u. c #335182",
"i. c #566A8C",
"p. c #797786",
"a. c #6F7791",
"s. c #495E8D",
"d. c #857D83",
"f. c #947788",
"g. c #AB7D8C",
"h. c #77869E",
"j. c #8C8483",
"k. c #8D8B8B",
"l. c #888485",
"z. c #928583",
"x. c #958A83",
"c. c #998B85",
"v. c #948C8B",
"b. c #9A8D8A",
"n. c #998787",
"m. c #9D928D",
"M. c #95968A",
"N. c #8C8A96",
"B. c #978D92",
"V. c #959493",
"C. c #9C9393",
"Z. c #9D9B9C",
"A. c #9A9797",
"S. c #8D9885",
"D. c #A78987",
"F. c #A3938D",
"G. c #A8978B",
"H. c #B6988B",
"J. c #A29593",
"K. c #A59A93",
"L. c #AB9B95",
"P. c #A49B9C",
"I. c #AB9D9B",
"U. c #A69697",
"Y. c #B59B99",
"T. c #AD8A8C",
"R. c #95A48D",
"E. c #ABA39C",
"W. c #A8A49A",
"Q. c #B3A39C",
"!. c #B8A79A",
"~. c #B9A68E",
"^. c #8F96AE",
"/. c #A59CA3",
"(. c #AC9AAF",
"). c #9CA1B2",
"_. c #A4A3A2",
"`. c #ACA3A3",
"'. c #ACABAB",
"]. c #AAA7A8",
"[. c #B3A4A2",
"{. c #B4AAA4",
"}. c #BAABA4",
"|. c #B3ACAB",
" X c #BBAAAA",
".X c #BDB2AC",
"XX c #B8B3A8",
"oX c #A7A7B7",
"OX c #B7ADB5",
"+X c #B4B3B3",
"@X c #BDB3B2",
"#X c #BBB8BA",
"$X c #ACB1AE",
"%X c #C49A8E",
"&X c #C8A68B",
"*X c #D4A686",
"=X c #C7AA99",
"-X c #D6B697",
";X c #D1B195",
":X c #E5B191",
">X c #C5ADA7",
",X c #C3B4AC",
"<X c #C8B7A9",
"1X c #D5B9A8",
"2X c #C3B5B3",
"3X c #C4BBB3",
"4X c #CBBBB4",
"5X c #C5BBBB",
"6X c #CBB9B8",
"7X c #D2BDB4",
"8X c #D6BBB7",
"9X c #CCADAE",
"0X c #E8BBA6",
"qX c #E99B91",
"wX c #BEC2B6",
"eX c #DAC2AC",
"rX c #CCC3B5",
"tX c #CDC3BB",
"yX c #C7C4B9",
"uX c #D3C3B4",
"iX c #D3C4BB",
"pX c #D4C9BC",
"aX c #DAC6B8",
"sX c #E5C6A9",
"dX c #E4CAB9",
"fX c #EED0B5",
"gX c #E7C296",
"hX c #BAB6C4",
"jX c #ACB0CB",
"kX c #98A8C7",
"lX c #C6BCC3",
"zX c #D2BEC0",
"xX c #C8C4C4",
"cX c #D3C5C3",
"vX c #D5CAC3",
"bX c #DBCBC4",
"nX c #D8CAC9",
"mX c #DBD2CA",
"MX c #DAD6D5",
"NX c #D1CDD1",
"BX c #E2CBC4",
"VX c #E3CCC9",
"CX c #E4D3CC",
"ZX c #E8D4C9",
"AX c #E3D5D2",
"SX c #ECDBD5",
"DX c #E9DAD8",
"FX c #F4DDD5",
"GX c #ECD4CC",
"HX c #EBE2DD",
"JX c #F8E4DB",
"KX c #E9E7E4",
"LX c #F9E9E3",
"PX c #FCF8F4",
"IX c #F5F3EB",
"UX c #DFDEE0",
/* pixels */
"M.W.XX,X<X3X5X#XoXp.p.^.s.g d d g f g f d f t f g g g g g f d d f f f u.u.g u.u.f g d d a.h.i.i.i.s.d f d d f d F e p e d d p p ",
"_.|..X.X,X3XxXxXxXhXNXhX^.i.t t t e d e F u F t F d t d F z z c z z F F F F d d d G E N.jXjXjXjXkXh.f d d d d d e e p p d t r p ",
"_.|.@X2X5X5X5X#X$XvXnXxXoX^.G p.(.Y.g.<.V J V J [ [ V [ <.{ { { { { { { } <.J J B Y.Y.8XDXMXlXOXjXG d d p f d i.a.F r e d e e r ",
"`.|..X2X5XlX5X5XwXyXpX7XT.:.f.Y.T.,.,.{ ..{ 4 {  ._ ^ ..| @.@...2. . . ...@.{ { ,.,.{ { 9X>X[ ;.f.G G a.i.h.^.kXjX^.~ p d e e p ",
"{.XX.X,X2X5XyXyX#XvX>X' ....} ] ( |  .)  ._ >  .1.) _ @.> > / 2.2. .( _ 1. ./ ] | /  .@.>.3 ( @.@.<.f.^.^.^.jXjXjXhXoX^.a.G e r ",
"W.{..X.X@X@XXX|.'.3X!.} 1.^ =  .|  ._ ) ) ) ( ) ) _ ) | ( } #.|  . ._  .1.) ) @./ ( 1. .,.> _ 1. ...T.(.).kXjXhXOX#X$XoXoXa.e e ",
"`.].{.|.OX+X'.'.+X|.9X%X1._ = ] } ^ _ 1. ._ _ ) 2.@.@.| #.@.0.#.( / @.@./ / ) 1./ |  . .| = ^ 1.^ ..g.2X/.oXhX(.oXoX].oXoX^.G r ",
"`.].{.|.@X#X@XXX@X3XbX9X..^ = #.| / #.2.#.qXt.qX>.;X%X,.0X:Xt.fX0.>.qXy.] #.t.2.( ,.@.@.@.> ^ ) _ | ,.6XOX#XOXhXoX).Z.).).N.G r ",
"E.{.}.,X6X2X3X3XyXrXrX&X| @.> +.:X:X>.*XH.9X:.%.x J T.q.H.q.0.y.sXsXsXsX*X;X0X:X%X-X-X0X*X( | 2.#.] %X8X5XlX#XhXoX).).).).N.G z ",
"W.{.{..X@X.X,X3X3XrXrXeX*X:Xy.0.:Xr.*X;X1XG.S M u L n.H.~.q.r.r.sX-X;X;X;XsXsX1X0XfXsXsX:Xt.:X:Xt.*X8X8XcXnXlXOXjXoXoXoXoXp.a z ",
"W.{.XX+X+X@X3XrXrXrXuXeXsXy.*XsX:X0.-Xw.w.w.e.H.&.&.q.w.r.e.O.r.O.O.e.` m m 0.0.r.*X-X;Xy.gXgXy.y.0X8XBXcXnXcX5XOXhXOXoXN.p.z c ",
"A.W.W.$X+X.X3X<X<X1XeX;X-Xr.0.r.*Xq ; < 0 q ; : ; * : q t.: ; : : : t.w X - ; ; ( ( w +.e.e.y.0.w.w.=X8XdX<X5X@XlXhXOX/.l.N.l.h.",
"C.K.W.{..X,X9X&Xw.&X&Xe.O.X.0 q ] - o @ , @ o &.5.X o >.w.o S : : 9 r.( : 9 @ + 0 9 + m 3 o n 0 m o.>.w.%XH.L.|.OX].`.P.P.].].Z.",
"W.E.[.}.>X>X=XH.+.q w ; + o o X.>.* < ~.+ + o - 1 , 9 X.1X0 < 0 9 8.*X( o @ , O 0 9 - 3 2 + - @ + O ; ; q 8.n./.C.OXtX6X@XW.V.V.",
"`.`.{.}.!.=X=XH.- + , @ + , O S +.; q 0.O.O.+.q.G.!.=X&X~.~.&X~.&X&X0Xw.H.q.q.e.X.X.w ; q - - o + - o - @ @ v.j.(.AXJXCX@XC.k.B.",
"`.`.{.{.!.<X1X>X9 $ , 9 8 n D 8.O.y.*Xw.;X;X&XG.A A 7.!.!.>X=X=X=X1XeX1X1XdXeXsX-XgX:Xr.w.w.m m 0 0 o < O 8 x.I.AXFXGXiX`./.P.P.",
"I.E.[.{.XX.X<X1Xm m S q.~.;X;X-X-X1X<X1XuX4X<XQ.H h d.].P.P.`.2XuXeXaXaXiXpXdXeXsX-X*X*X>.X.X.X.&.o.q m 0 o.=XBXCXCXCXcXE./.].C.",
"I.Q.{.XXXX.X>X>X=X&X&X;X;X-XgXsXdXaXuX}.,XiX2X5Xp.c p.oX]./.A.C.!.1Xq.H.uXiXpX1X&Xw.r.+.m q O.=X1XO.X.&X=X=X7XaXpXbXvX2XE.P.].V.",
"E.Q.!.!.}.}.}.!.!.<XeXeXeXsXdXdXaXuXpX.X,XiX3X5X_.E E oXOX/.Z.C.G.=XO.< 1XaX<XdXdX%Xo.&.~.1XBXaX1XeX1X1X8XBXGXSXCXCXAXI.K.|._.C.",
"Q.Q.!.!.}..X<X,X!.<XuXuXuXaXdXdXuXuXpXrX}.<XvXxXhXN.G N.].V./.K.H.&Xw.>.>.=XsXfXZXeXq.7XbXmXbXCXJXaXaXGXZXZXCXSXvXCXAXm.c.].P.Z.",
"Q.!.!.}.XX,X3X3X4XrXuXrXrXpXbXbXpXpXpXtX!.!.pX5XxX_.c Q _.Z._.*.o.+.%Xr.+.w.sXfXfXZX<X3XHXKXDXDXSXCXFXJXSXHXSXSXmXnX@X`.].`.C.v.",
"Q.!.{.!.{..X3X3X3X3X4XrXtXpXpXpXpXpXpXpX<X>X>X}.].'.Q l./.A./.j.S X.>.>.' >.&X1XdXuXQ.IXKXKXAXmXnXSXSXAXAXKXHXKXAX.XC.|.@XC.W Q ",
"L.I.I.L.I.{..X.X3XrXtXrXrXrXrXpXpXpXpXpXuXuX<X}.`.Z.Q E Z./.N.d.J.;.0 [ q >.&X;X~.H.mXIXHXMXmXmXHXDXHXHXAXDXHXmX5XP.`.@X|.l.Q k.",
"v.m.C.J.U.`.{.{.E.XXrXrXrXrXrXrXpXuXiXiX7XuXaX>XI.C.p.c Q N.p.d.B.I.Y.;.o q.1X;XH.<XLXCXvXtX.XCXFXSXCXnX6X3X2X|.U.C.`.|.`.*.l.j.",
"C.C.J.C.I.[.{.{.U.K.Q.rXuXpXuXuXuXpXrXuXuXuX7X>XI.B.p.r G Q p.N.N.Z.@X}.q.ZXeX1X<XZXCXiX4XnXiXBXbXiX,X2X.XJ.m.U.C.v./.`.B.Q *.Q ",
"v.C.J.J.I.[.{..X}.L.K.<XrX<X<XuXpXpXpXuXuXuX<X,XI.P.Q z z E p.p.p.N.OXPXPXJXJXBXaXFXZX7XQ.Y.>XY.F.L.>X<XbX6Xm.J.I.j.v.j.Q I ! H ",
"C.J.J.J.L.I.Q.[.}.Q.K.!.4XuX<X>X!.,XiXuX<XuX7X>X X/.E z a c E E Q l.K.3XpXbXGXZXFXJXBX,X}.Q.7X8X>XY.>X!.!.}.b.m.z.5.j.Q I I I I ",
"m.m.F.K.L.I.I.[.{.}.L.L.,XiX<X!.Q.F.}.iX7X7X7X4X X`.Q a a i ~ L Q *.x.,XL.}.CXGXFXFXaXQ.,X6XiXGXBX7X4X4XQ.m.x.v.z.v.*.! ! K x N ",
"x.m.L.I.L.L.I.[.}.}.L.E.6X4X>XQ.,XU.J.,X4XuXuX7X6X/.Q i i i C x A U F.L.!.4XiX7XbXGXaX}.,XvX6X8X2XiX4XnX6XU.z.z.c.j.I I I I I l ",
"x.m.L.Q.Q.I.I.Q.Q.Q.E.[.4X.XY.L.I.`.z.b.{.rXuXuX,XW.h.i i s i C D 8.!.dXaXbX4XVXBXGX}.XXpXbX,X7X}..X}..X XI.5.-.*.j.W T I W T l ",
"x.b.F.U.Y.[.[.[.I.E.E.E..XQ.L.J.J.B.-.=.K.,X<XbX2XA.3.4.s 5 s 3.9.%.aXaXBXGXGXbXSXCXD.!.pX7X>X>X[.Q.U.m.z.C.-.K Z I W I L T P M ",
"F.J.J.J.L.Y.[.}.Q.U.J.K.[.L.L.Q.`.B.*.-.j.,X4X4X.XA.3.4.C C C 3.9 G.aXBXBXVXVXiXFXBXG.!.rXiX4XY.[. Xj.P K T K N P k I R Z T Z k ",
"c.m.L.L.I.[.I.I.[.J.I.b.m.L.U.I.I.C.K x d.`.6X2X{.M.3.C D 9.3.3.R M.bXJXFXFXSXVX8XY.,XmX|.K.L.D.J.J.U N M N K K N N T T I N M b ",
"7.c.F.F.L.I.U.U.I.J.v.=.z.b.J.I.P.*.c h I B.[.2XE.M.R.C 9.9.M.6.3.R.uXuXZXJXJX7XG.L.6XtXM.x.c.7.=.5.K N P W I M h k T -.U M j j ",
"7.c.b.b.b.C.b.v.b.U.z.I -.B.B.P.j.x h y L d.J.[.K.K.R.4.S.9.R.D 3.W.pXZXBXbX}.}.n.L.[.{.x.c.7.-.%.-.P Z P W U M k j j k M M j 6 ",
"z.b.b.z.z.v.z.j.v.v.v.W Q v.Q l.Q h y y L *.U.[.U.A.9.C 3.9.4.C 3.!.<X<XY.F.F.-.7.F.F.F.5.z.=.=.=.T P P Z K P N k j j j 1 1 1 6 ",
"c.F.m.c.v.c.v.l.d.l.k.! L Q H L H % % y K *.U.I.L.K.S.3.3.C C C 3.6.8.!.Y.c.5.*.-.-.-.%.-.T -.=.7.U Z P Z Z Z M k j 6 6 1 1 $ # ",
"z.b.m.m.C.v.v.l.Q Q ! L L L H x a % y h L d.C.J.F.5.A R.h C s C D 8.;.$.G.z.6.W U Y P B T T -.-.=.T P Z Z A N M k j 6 7 $ $ # # ",
"=.x.c.C.C.c.k.l.d.E c H E x c L % r c c L k.C.U.b.=.5.A 5 i i C 7 D o.- $.=.W K I U Y P U T -.-.-.U U S B N B N M k k j 1 $ # # ",
"=.x.c.m.C.v.k.l.Q Q x h H H c c % % y h L k.l.k.=.Y tXK 5 i 5 5 7 7 2 3 o $.P P I Y B Y Y %.%.%.$.S Y S S N N Z N k k 6 1 $ # # ",
"=.7.x.c.b.z.5.*.I L x & h c h y % % % y c Q Q d.H I.AX6 5 5 5 5 7 6 0 V - v Y Z U I Y P Y %.%.$.$.S S S B B N b n b j 8 1 $ @ O ",
"7.=.7.c.5.5.j.W P x K L & 1 y $ & % % % h x L I z.IXm.# h h 5 5 6 j V [ V - B S P U Y Y S o.%.%.U Y S N n B B b b v j j 1 # @ @ ",
"-.7.5.7.x.z.=.U W j.@X5X*.z.nXI.y & & & & h L L 5XAXj 1 l 7 % 7 j b n n V * 3 o.S S S S o.o.o.S S B B B n n n n b j j j 1 $ # # ",
"=.=.=.5.x.5.-.5.c.#X5X5XmXmXmXKXnXnXI % K h h *.DX-.1 j 7 7 6 j k b N B :.m - < S %.o.[ o.+.&.%.%.N b b b b n M b j 8 6 1 $ # # ",
"=.=.c.7.7.F.I.{..X@XcXAXDXmXnX6XB Y.[.A PX@XP mXL.1 6 1 $ 1 6 j b b Z P :.:.m 3 < ' +.+.&.O.%.-.%.U N k j k b b j j j 6 1 # # # ",
"T -.7.5.b.I.U.I.{.3X6X6X.XvXQ.+ < < k tXKXLXFXbXb 1 6 7 7 1 8 j j M Z K Y :.;.m ; * > / ] X.o.%.Y P H N k j j k j 8 6 1 $ # # @ ",
"-.-.-.b.{.J.j.v.|.2XcXmX6XiX2 , T.q.X K.LXGXBXG.n 8 6 j j 6 j 8 b A N N K =.;.O.( = > | ] X.o.$.U N j j j h j j 8 7 1 1 $ # # # ",
"U -.-.z.J.C.K.z.{.nXDXAXAX2XX S =Xq.n F.LXdX1X$.8 8 M b 8 j 8 8 6 k N N M N o.' ] ( / | ] X.[ Y H N M j 1 1 6 6 6 1 $ $ & O O # ",
"=.=.7.7.m.}.XX{.C.lXAX6XVX{.X k =Xw.m ~.JX~.2 ;.G.j N N -.T j N K R 6XcX}.;.S q ] | | / X.o.m n C.l.l.l.*.Q Q 6.Q Q Q Q W W I O ",
"=.c.F.F.L.}.,XtX@X@X2X2X,X-.$ X 0 0 - &XFX1X< H.aXb N b.cXiX4X4XtX.X,XVXLX=X&.q q ] ] X.m n v Y *.I h h x x x % I h h h h x W O ",
"5.7.c.c.c.}.tX2X@XlXcXDXcXU k @ < o.;.1XGXdX=XH.LXG.M U.CXSXJXuX!.!.Y.:.9XF.%.v V m 0 0 8 8 v Z j.L y ! L L L x Q h h I x L ! O ",
"=.7.7.c.K.K.L.E.@X@XOXnXcXb.k 1 0 =XdXaX1X<XdXq.dXZXS x.CXGXuX<X1X1X%X8 $.I.v.U 2 2 2 , 7 n S b vX+XxXk.].Z.#X_.+XA.+XV.W.5X].X ",
"T x.5.x.L.F.c.F.2X5X`.`.3XU., n >X;X=X>X>XaXeXD.H.!.b x.CX4XuX1X&Xw.[ 3 ,XnX+X5X-.2 # 2 n n n 2 AXZ.#Xl.].C.#X].xXl.].*._.xX|.  ",
"N -.x.7.x.F.J.F.L.|.Z.v.`.z.n 8X;X;X>X=XZXFXdX8X>XH.K.KXIXiX=XH.w.m - :.LXHXxXNX6Xz.N 1 1 k B v MXA.+Xv.xX+XNX'.+Xk.#Xk.NXKX+XX ",
"k T m.K.K.7.7.L.C.k.l.v.c.U $.Y.&X=X1XeXeXdXdX1X=XQ.DXPXHXAXD.8.m < 0 1XJXvX2X{.cXvXcXK.S M j M @XM.A.l.].Z._.k.A.V.Z.V.V.+XZ.  ",
"Z N 6.K.W.K.b.c.m.C.k.k.*.P $.:.' q.=X1X1X8X0X1X>XXXHXKXKXDX6Xn + + ;.JX4XtXvXtXmXCXSXmXyXE.Z N l.h L I h x L % x Q L x W x L . ",
"N Y Y K.W.K.m.z.C.V.k.A.].z.:.D.o m Y.=X1X1X1X>XY.iXIXIXUXKXAX[., , CXGXtXtXDXCXAXJXHXHXnX@XA.x *.% x h h c h & c L c h x % ! . ",
"k Z Z m.W.K.m.j.C.v.k.].xX[.:.:.- X v q.H.H.H.T.F.HXPXMXUXKXVXBXc.7.LXFXCXDXbXbXiXbXmXAX5X`.`.k.xXNX+X#X+X+X+X+X+X].+X+X'.MXV.  ",
"k N Z b.K.K.m.*.j.k.l.P.5XU.$.8.%.2 # j B :.D.Y.BXLXKXMXIXAXBXH.q.w.w.;XFXJXLXCXSXVX6XOXOX#XlXlXPXNX_.].$X].+X#X$X'.+X'.].MX].  ",
"l M I x.c.m.x.-.C.j.C.|.5XJ.>XLXPXPXDXDX[.Y.4XBXSXHXMXnX@X,X=X%XT.>.' 0 [ ;.;.D.}.VXLXDXnXcXcXmXxX].].A.V.V.$X#XV.V.A.k.V.+X6.  ",
"h k I 5.5.x.j.W I *.C.@Xz.Y JXJXMXNXMXMXcXDXSXCXCXDXnX6Xz.n.T.q.D.>X=XT.:.$.$.n 8 v $.8.8.&.o.S 5.KXMXA._.V.xX+XV.Z._.V.KXMXx . ",
"h l K T -.5.6.R N W B.*.k b.DX3X|.+X|.|.cXcXtX3X,XcXDXnXnXVXBXBXVXAXAXSXzX8X9XY.G.F.8.8.H.8.0 8 2X|.+XA._.Z.#X+XZ.'._.].xX#X_.  ",
"1 h N P R -.R K Z P =.n.I.nXvX{.nX6X2XtXtX{.3XrXiX6X6XcX5XnXDXmXvXyX5XvXiXiXiXiX3X X.X6XmXDXDXnXKXmX'.'.k.k.k.k.V.k.V.k.l.xXl.  ",
"$ 7 M Z P R L A I T n. XzX.X[.[.iX2X,X2X[.3X3X3XtXtXcX5XOX].yXxXwXNXyXyXyX.XiXnXcXtX|.{.5XlX5X5XyXP.|.6.. . . . . . . . .     . "
};
