/* XPM */
static char *_1edaff0c1d945c0c447b76dba6d170fmlPLyOLf75PsjMh0[] = {
/* columns rows colors chars-per-pixel */
"64 64 256 2 ",
"   c #030218",
".  c #0C080C",
"X  c #040728",
"o  c #141133",
"O  c #29192E",
"+  c #312737",
"@  c #1F1F28",
"#  c #4F3431",
"$  c #683A30",
"%  c #52331C",
"&  c #3F413C",
"*  c #534735",
"=  c #714F2F",
"-  c #7B591F",
";  c #040B44",
":  c #09154A",
">  c #171647",
",  c #091654",
"<  c #191B58",
"1  c #0F0E48",
"2  c #281C48",
"3  c #281D54",
"4  c #331F58",
"5  c #1A265A",
"6  c #192149",
"7  c #292548",
"8  c #27285A",
"9  c #372957",
"0  c #393559",
"q  c #33314C",
"w  c #191D68",
"e  c #1A1E72",
"r  c #161E75",
"t  c #071F66",
"y  c #261D66",
"u  c #261E74",
"i  c #1C246C",
"p  c #192668",
"a  c #0E267C",
"s  c #162275",
"d  c #1C2374",
"f  c #1C2C75",
"g  c #14247C",
"h  c #1A257C",
"j  c #152A7D",
"k  c #1C2A7C",
"l  c #162A72",
"z  c #1C3379",
"x  c #172F68",
"c  c #232464",
"v  c #23246C",
"b  c #292A67",
"n  c #352A6A",
"m  c #293269",
"M  c #363769",
"N  c #222473",
"B  c #232B75",
"V  c #22267B",
"C  c #222B7C",
"Z  c #2B2B78",
"A  c #372C76",
"S  c #21317C",
"D  c #2A3677",
"F  c #373877",
"G  c #46364F",
"H  c #443868",
"J  c #442C75",
"K  c #453779",
"L  c #472E6A",
"P  c #643D4F",
"I  c #33435C",
"U  c #39447B",
"Y  c #294571",
"T  c #3F6073",
"R  c #534A4A",
"E  c #524D53",
"W  c #675658",
"Q  c #73524E",
"!  c #796B4D",
"~  c #484568",
"^  c #474678",
"/  c #594B78",
"(  c #5A5777",
")  c #52516D",
"_  c #6A5770",
"`  c #516977",
"'  c #676577",
"]  c #716C71",
"[  c #526C5F",
"{  c #9A7438",
"}  c #8F6956",
"|  c #A97A54",
" . c #8A716D",
".. c #A97B6E",
"X. c #72A03B",
"o. c #69934F",
"O. c #6E8C74",
"+. c #6C9C5D",
"@. c #A98654",
"#. c #958E77",
"$. c #AF9073",
"%. c #8DB071",
"&. c #88AE54",
"*. c #CCAB6E",
"=. c #E5B374",
"-. c #CA986D",
";. c #9CC16C",
":. c #0E2B86",
">. c #142482",
",. c #1B2582",
"<. c #142B83",
"1. c #1C2B84",
"2. c #142C8A",
"3. c #1C2D8B",
"4. c #13268A",
"5. c #1C3284",
"6. c #14338D",
"7. c #1C328C",
"8. c #1D3B8B",
"9. c #173686",
"0. c #182E92",
"q. c #1C3492",
"w. c #1D3A94",
"e. c #1C3D9B",
"r. c #193698",
"t. c #0D368F",
"y. c #222D84",
"u. c #262D87",
"i. c #392D85",
"p. c #243285",
"a. c #2B3485",
"s. c #23338B",
"d. c #2C3B8C",
"f. c #273888",
"g. c #3C338B",
"h. c #383788",
"j. c #233492",
"k. c #233A94",
"l. c #233B9B",
"z. c #2B3C9B",
"x. c #283896",
"c. c #383895",
"v. c #3C2E91",
"b. c #1C3DA1",
"n. c #233CA2",
"m. c #2A3EA1",
"M. c #432D88",
"N. c #42338D",
"B. c #483787",
"V. c #54388A",
"C. c #473996",
"Z. c #553898",
"A. c #4D2F94",
"S. c #4E3CA1",
"D. c #1B439B",
"F. c #174891",
"G. c #2A4588",
"H. c #37498A",
"J. c #38568B",
"K. c #24449C",
"L. c #2B439B",
"P. c #294697",
"I. c #344394",
"U. c #334C9D",
"Y. c #3A4B9C",
"T. c #384697",
"R. c #395499",
"E. c #2D549A",
"W. c #1C45A6",
"Q. c #1F51B1",
"!. c #2343A3",
"~. c #2B44A3",
"^. c #234AA4",
"/. c #2C4AA4",
"(. c #2B4CAC",
"). c #2647AA",
"_. c #324CA4",
"`. c #344DAC",
"'. c #394AA5",
"]. c #2A53AC",
"[. c #3452AC",
"{. c #3B53AB",
"}. c #3855A5",
"|. c #2B4CB3",
" X c #354CB2",
".X c #2B54B3",
"XX c #3757B5",
"oX c #3D68B7",
"OX c #3E6090",
"+X c #464787",
"@X c #534887",
"#X c #495489",
"$X c #585788",
"%X c #464898",
"&X c #564796",
"*X c #465799",
"=X c #575797",
"-X c #65598A",
";X c #645996",
":X c #70528E",
">X c #586698",
",X c #516A8D",
"<X c #656787",
"1X c #666797",
"2X c #737290",
"3X c #474CA5",
"4X c #4757A8",
"5X c #5556A8",
"6X c #4659B6",
"7X c #5558B3",
"8X c #4765AB",
"9X c #5665A8",
"0X c #4867B9",
"qX c #5769B6",
"wX c #5873B9",
"eX c #5375AF",
"rX c #6868A7",
"tX c #6A76A8",
"yX c #6877B6",
"uX c #756DAC",
"iX c #705AA7",
"pX c #3B6AC8",
"aX c #476BC7",
"sX c #4E75CD",
"dX c #697CC7",
"fX c #8F7490",
"gX c #8979A6",
"hX c #8E71AA",
"jX c #97729C",
"kX c #738E8F",
"lX c #7489B1",
"zX c #7EA298",
"xX c #7289CF",
"cX c #6386E0",
"vX c #958D96",
"bX c #AF9490",
"nX c #90A88C",
"mX c #B9A88C",
"MX c #B6AA92",
"NX c #8C8FAF",
"BX c #A694AD",
"VX c #98A8B3",
"CX c #B1B1B2",
"ZX c #C79C91",
"AX c #CCAF90",
"SX c #C9AFA6",
"DX c #E1B389",
"FX c #B1D78B",
"GX c #E5F0B5",
"HX c #D3D29C",
"JX c #8D91C8",
"KX c #92A4D4",
"LX c #AFAFD2",
"PX c #98ADED",
"IX c #B0C3D6",
"UX c #E6E5D8",
/* pixels */
"p B k ,.3.0.0.r.t.t.D.W.).^.e.6.6.:.l.r.F.F.D.2.4.4.<.a k g >.>.4.:.2.6.>.4.e.b.|.W.r.6.j 6.).).).].`.XX(..X|.(.].!.l.w.q.6.1.y.",
"i p k 3.1.3.j.q.6.9.8.P.^.e.8.9.9.<.q.r.D.F.D.r.4.>.a g k k g g a a g >.,.3.2.b.W.W.4.3.8.7.K./.[./._.L.{./.`.(.(.!.l.w.q.7.1.y.",
"i s h 3.,.1.7.8.f.x 6 x P.L.f.x 5 m 1.j.l.l.l.q.0.2.1.s s d l l l l B d d y.x.l.r.0.j.1.1.f.z f.G.F.T.I.G.G.K././.K.l.q.q.s.y.C ",
"l d h h 1.k j p.G.tXBXBX9Xz <XVXNX$Xc p i f f p w w , i 5 < 5 , : o o o 8 < < p p p 5 5 b 5 ( NXlX#X+XtXNXlXR.!.!.l.w.q.3.y.y.y.",
"l f d d k k <.1.5.M  .SX^ 5 W AX] W R E ) 0 R R W E M m + q b < 0 W * # + G W R R R # * * * R  .CX) G gXLX' H.!.n.n.r.3.1.5.s.q.",
"f l N N d k 5.1.j.8 = DX] @ @.-.* vXSXMXCXW  .SXAXCX2Xo Q SXH > R SXAXHX .Q HX*.mX$. .mXHXAX$.! mX% @  .vX+ H.k.l.l.j.3.1.5.7.7.",
"k d N N i l 5.5.,.< } DXAX= =.*.Q bX#.* ~ q  .$.+ 0 9 + $.DX_ @ * ZX+ ] $.- *.= * G E G SX! * #.DX{ - mXvX7 U B d.u.1.k z z y.y.",
"d N v y N d l f.,.c } HX=.=.=.=.= ..AXmX_ O | | + NX) # -.| bX. = ZXO W AX- *.$.$.q 2 9 mX} @ ] AX*.$.mXvXI F D u.y.h f k S C p.",
"i v i w e e w B c.< } DX@.=.{ DX% } @.=  .# } -.= ZX} Q DX-.AX% $ $.= $.bX= *.- = W 9 9 bXQ O ) SX% # vXBXq F a.y.V N w l z S S ",
"c v i i h d w v a.b Q | = $.$ bX$ ..MXMXSXP ..AX$.#.] bX .# bXQ Q fXmXbXR W $.ZXMXvX8 $XjX .9 / vXR + fXvXq F C k d Z N k S S S ",
"c p i l h d < w p M $ ..P W W vX<XK F F 2X0 F U U #X1XM b b M M m m 8 8 b F M M ( <Xv c.%X=X+XNXBX_ #  .2XM A B i i k k S p.S S ",
"p p p i h d w < c 7 ..ZX-Xc H 9 m C d.d.U , 5.q.K.k.z l <.<.s f z l S y.f.h ,.y.U m B p.6X4XF $X^ ( vXBXfX9 v f i i f z C C C p.",
"i p p i d k i c > _ SX_ Z 3.d v i f G.G.m D f.k.T.I.G.8.k.f.m D C y.f f.j.z.d.D D D D H.P.U.*Xv d.5X=X-XBX' 5 z k d f p v B C a.",
"f i i i d k d i ^ gXH b y.4.3.I.G.z T.H.G.R.7.k.U.I.U.8.7.j G.D d h f Y.7.z.%XS G.H.G.4X_.P.4XT.(.m.I.m E NXU p.s.y.B v p B C a.",
"B i i d d h d e Z w v d x.w.9.8.9.:.9.D.K.~.l.6.D.^.!.l.3.1.h k g g 9.:.r.z.s.p.9.K._.[.XX[.{.{.`.~.c.h.p m D C y.y.y.C f f C u.",
"i i d d d h d r r V h g 7.6.a :.6.6.e.t.!.e.w.6.t.D.W.l.s.h ,.>.>.1.<.:.0.l.5.1.9.q.^.].(.(.`.XX`.K.j.k 5.f.C C h ,.u.y.z S C C ",
"Z N d d d s h h h s s g <.2.7.<.<.6.!.e.e./.].F.D.D.(.e.9.j >.,.>.1.<.7.2.q.3.3.q.~./.^.).(.`._.~.l.q.3.5.s.s.y.p.y.1.k k S p.d.",
"B d d d h h h h ,.h g g g <.3.6.6.2.!.oXG.eXeXG.P.r.r.w.9.j 1.,.g g <.<.2.2.2.2.2.e.!.^.(. X`._.~.w.7.7.s.7.3.s.y.y.y.y.y.y.p.f.",
"d d k k k ,.g g h h g g g >.<.q.0.r.r.8X` kXzXT f.~.r.l.7.<.g r h g ,.<.7.4.2.2.w.l.D.e.b.!.~.~.l.q.7.q.s.3.1.y.y.y.y.s.s.p.s.s.",
"h h k 1.1.1.,.g r h h g g g g 7.l.6.9.J.nX%.+.O.H.3.4.r.<.g ,.g g g ,.j <.>.2.2.2.r.l.w.e.n.n.z.7.7.7.7.3.3.1.1.y.1.1.1.p.s.s.s.",
"p.1.1.,.,.,.,.g s s s h h g g 1.L.}.H.<X%.X.o.O.,XT.l.r.q.1.>.g h 1.1.1.<.1.3.3.q.l.r.2.6.r.l.j.3.3.3.1.1.1.1.1.1.1.y.s.1.5.s.k.",
"k.s.5.1.<.<.,.,.,.h s s s g s j 5.J.tXO.o.&.X.+.kX*XK.:.1.k s s r h g ,.g <.g >.x.z.l.l.l.l.0.>.1.,.1.1.1.,.1.s.1.1.3.3.1.7.z._.",
"k.k.k.q.3.<.,.,.,.h d s r s h k P.*XkXo.o.FXFXo.nX,Xf.7.v c B S u.y.1.3.5.9.1.3.0.0.3.7.k.j.3.3.1.,.,.1.1.,.1.y.y.1.1.3.j.l.~.`.",
"7.k.L.L.j.3.,.,.h d h d r s 1.1.j J.kX+.%.GXGX%.O.kXx U LXLXuXh.h.V h ,.s.<.1.y.z.z.l.l.k.1.>.3.1.1.1.,.h 1.1.1.y.,.1.s.L.~.L.l.",
"s.k.k.k.L.x.1.h k s r d h h s g <.J.kXo.;.FXFX+.o.kXE IXUXUXBX&XuXC.u.j.5.<.,.<.3.3.q.k.k.s.s.3.,.1.1.y.y.y.1.k h 1.s.k.k.k.z.~.",
"5.5.j.k.s.j.s.p.r r d d r s k s.k.G.kXnXX.X.X.+.O.[ #.GXGXUX:XiXuX3Xh 1.1.3.3.3.q.0.q.7.j j 1.s.p.y.1.y.1.1.h h y.y.s.x.x.z.l.k.",
"j j s.s.5.s.p.C y.d d d h y.h g r.U.,XzXFX&.;.nX1XI nXGXUXCX:XB.;XuXa.y.7.4.<.q.0.0.q.q.7.1.1.>.h y.d.s.d r C y.y.y.s.s.s.s.7.7.",
"s k h k p.y.h h V V C h k 1.h >.w.w.J.` O.FX%.O.J.x nXUXO.( 1XK @XB.h.a.s.l.q.l.l.r.l.l.w.7.1.g g ,.p.p.y.y.y.y.y.y.y.y.1.1.1.5.",
"k k s r h h d V d N y.h d g g <.2.P.H.` O.nXO.,XP.G.2XnX) <X1XF K &X+XT.f.k./.b.).).(.~.k.q.5.,.1.,.1.y.u.a.u.d y.C h k 1.1.y.s.",
"V d d l w w d e V N h d s ,.>.<.K.U.d.JXCXO.lXJ.}.S I kX2X$X1X@X;XgX+XF f.K.e.).!.).|. X).l.7.g >.3.u.y.y.C y.y.V V V C y.y.p.s.",
"N i N N w w w w d d d d s ,.3.w.D.E.>XIXIXlX8XJ.G.Y ` vXNX~ gX^ / -Xn #XI.8.!.).).).|.).).~.k.<.3.s.y.h ,.y.C C d d V C C y.y.f.",
"v N d i d i w N d e d s s 1.3.w.!.E.H.#XH.t G.Y Y lX,X) 2X2X( / / / 7 m H.*XP.K.^.).(.).n.n.k.3.0.x.y.h V C h V Z N N N C a.a.p.",
"v N N w d d V N e r d g j 7.r.r.)./.5 < P.}.J.U 2XzX,X,XF JX2X~ uXH 9 7 o 6 ^ J.K./.(.~.b.e.q.3.l.z.,.h h d d C Z Z c v N Z V C ",
"v N N d V d N N d r g g <.6.e.!.b.}.p 5 4X{.yXlX2X,XOX8XB 9XLX^ rXn 9 7 o X o U P./.~.!.W.W.e.r.n.n.j.s.k h h h N v b c N C V a.",
"N N N v N w i i d w s 9.w.D.D.^.^.}.5 6 D f 9XwXJ.J.J.eX4XxX#X>XyX< m 8 o X 8 v P.[.[./.^.].]..XXX(._._.j.3.,.,.V Z Z v B f C a.",
"p d N N u N B w w e s s./.(.(.^.^.8Xx 8 x z *X*XR.l G.8X8XPXH.yXyXw < ; 1 3 < B P.[.[.].].]..XXXXX(.(.`.z.3.,.,.h C e d k p.%X%X",
"l l h ,.u.c.d.V e r r 3.l.n.n.e.D.G.; 8 H.G.G.*Xm : 9.E.E.xXqXH.xXz i : c < 1 F l.).n.b.W.W.).~.!.!.r.w.q.>.y.V u.u.a.a.5.d.5X5X",
"l l g x.'.7X7X5Xr ,.,.j.~.n.~.~.D.P.p , k j t t , , t P.K.cXwXz 6XG.G.x D c 1 m z.).).(.|.~.'.Y.K./.!.l.j.1.Z Z h.%X3Xc.x.d.%XC.",
"f.f.s.c.'.4X4X3X,.3.g 5././._./.W.^.P.8.a a 5.7.K.[.s p 5.0XsX8.f.f.f.f < #X> m d._. X{.Y.%X;X=X*XL. X Xz.C 9 9 @XrX%Xx.z.Y.%X&X",
"Y.7X4X4X{.4X7X7X5X5Xd.j._.}.+XD P.^.W.D.K._.I.d.!.^.f.; p *XdXt l l 5.5.*X9X8 < d.}.[._.*XuXBXhXxX'.6X Xz.a.H :X2XLXC.c.c.3X%X&X",
"%X7X6X6X_.L.3XuXhXJX3X{.{.*XfXvXT././.!.W.6X;X;XP./.Y., , m >X; < H.4X8XcXY.w F Y.{.[.{.%XuXjXhXuX4X6X X'.+XfXfXfXuXF h.h.%X%X%X",
"%X7X6X`.P.U.a.rXhXhX5X'.'.=XbXBX=Xx./.^.).{.hXhX*X8.U.z ; > 8 X o #X9XwX0XY.w Z T.XX[.[.%XuXjXhXgX*X4X'.6X%X:XjXBXNXD D H.%XT.h.",
"L.6X7X6XL.L.I.9XJXuX9X6X{.qXNX2X@XT.U.].D.}.1XgX>XG.P.G., > o X X 0 Y #X8Xp.< b {.XX.X_.*X@XhXjXNXtX9X4X'.%X:XjXgXLXlX*Xh.T.d.d.",
"z.6X6X{.7.qXqX+XtX>X*X*XsX*X2X) o F {.K.oXf.^ uX>X; j P.: o X   X X 0 ,XH.i y A 4X X(.}.h.1 / / O 7 #XKXL.3X&X@XH uX*X9XyX4Xa.c.",
"k._.6X{.L.xXF ; U #X6 5 rXb ~ _ O o G.}.*X1 ^ tX>Xx S h.o   @   M 1X^ 8 : w K %X'.{.`.3X> X H ~ ( 0 M KXY.c.i.n @X$Xp w =XxXZ h.",
"s.U.'.I.*X#XO o 7 I 7 6 M ^ BX] bX2Xm qX+X< m 9X9X9X%X+X7 . . ' lX8 X X 1 b B.A T.'.'.D o O 0 H ( 2X<XKXH.I.f h.+X+Xy b U JX@XB.",
"x.I.G.tXCXCX#.! ! R [ ` ) NX( @ R E p 5XH.< p #X*XH.d %X8   # CXUX$X  X 3 n B.< d.'.H.H ) G o 2 2 2 $XJXT.d.l J.^ A B.A 5 NX<X~ ",
"d.a.*XIXIXSXMXmXSXHXLXVXKXNX<X~ q q > D ,Xm o 6 8 5 D F 8 )  .W ) NX9 O 9 K > < i 5X#XgXCX_ o 7 9 o tXrXH.f.f H.b +XiXF 8 lX' E ",
"x.Y.dXxXJX2X' ' <XNXwX0X0X8XyXtX1XlXNXNXkX] R & + q ~ I 2XfXW W 2 ;X;XM 0 o   o > ^ #X1X0 q 7 2 o 8 JXG.d.V v A c b Z < < <X<XG ",
"s.'.4XqX9X@X-X;XyXdXsXsXpXoX8XyX>X,X,X,XvXnXnXCXCXCX] ' ] ] _ G 3 K &XK @ . . .   > U 5 o 0 ~ 0 m U xXH.Z m M 3 < m m F $X1X<X0 ",
"j.T.a.h.F b +X+X4X}.K.K.P.0XxXwXxXxXxXlX>X1XkXNXVX' ' E E E ' q K A 5XNXCX#.] ( ^ F U U lX>Xc b B D yXxX+X/ _ ' ^ M M M M M / M ",
"a.a.Z n 8 8 n Z I.L.8.:.k.0XP.}.oXoXsX0XwXeXlXJXlXlX<X( <X) ( #XF Z i #XVXVXNXNXKXdXxXxXPXKXxX4X4XY.T.F M H q G F < M ^ M #X=XD ",
"m b 9 9 7 9 8 8 D I.<.2.XXq.a k.sXsXpXD.D.8.P.R.G.eX>XtX>X>XlXPXR.wX8XxXJ.G.G.4X{.[.0X0X0XcXcX6X6XaXaXwX8X9XH.D D B +XU m *XP.k.",
"m m 9 9 2 7 2 3 c %X5.6XXX~.P.w.oXQ.Q..XQ.XXXXaX}.8XE.8X9XwXR.qXP.P.xX8X/.~.l.(.).W.)..X.XoXXXW.!.^.].E.8XI.8XwXdXqXwX9X9XwX0XXX",
"A F Z m b 3 4 4 3 +Xd.U.E.w.K.[.e.Q.pX].t.^.XX.XaXsXW.XXaX{.g l f 8X}.:.<.q.2.0.0.b.W.e.D..X^.^.]..XXXU.5 5 Y._.'.`.XXXX0X0XsXsX",
"i.g.h.h.F A n L n A =X*X8XK.^.W.W.).^.D.t.t.D.aXcXsXQ.].aX8.k a.*XD l 5.9.j.k.7.q.q.r.e.^.K.6.8.8.k.}.a.8 M 4XXX6XXXXX[.{.{.]..X",
"N.B.B.K F B.K A n n M >X*XF.D.^.(. X X`.`.XXoXaXaXXXD.w.}.Y.H.+Xv w B N N d v Z y.u.s.z.z.z.1.C v c b n 8 D f.z.L.'.'.I.*X*X*X4X",
"M.Z.V.J A K B.J J L 9 H #X4XU.6.q.q.j.k.L._.{.XXXX6X6X6X4X%XD y y y b c N v < 8 F Z Z C u.u.V Z n 9 7 7 8 A a.s.I.C p.a.D m D F ",
"N.&XZ.V.V.B.B.B.M.B.J L J @X5X5X5X4XT.I.I.Y.3X3X7X5X3Xc.Z Z A A n n n A A Z n ^ NXuXc b v N A b 9 7 O O 7 c N h.qXh.Z Z Z b 8 0 ",
"g.C.Z.B.V.V.B.B.C.C.B.B.B.B.M.N.T.T.%X%X%X%XY.T.h.i.v.N.g.i.A A K K J M.i.A n -X0 0 n A A b n n 3 0 O + 7 8 F +X5XF Z Z F F 0 0 ",
"a.C.V.n J V.B.N.c.c.v.v.i.v.v.c.x.c.g.g.g.h.h.h.g.M.M.M.B.M.A J K V.B.M.v.g.M ~ 0 K n N.A A F A J L 9 7 9 -X^ M +XA F +XM 9 0 9 ",
"C h.B.A A V.C.C.C.c.u.c.c.C.c.v.c.c.g.N.N.N.g.N.C.V.M.A M.M.J B.B.V.N.C.C.C.H 0 n A C.g.g.g.i.M.M.J L 9 9 -X^ K +XF ^ #XM 0 H H ",
"5.d.I.%Xc.g.c.C.c.h.i.N.C.C.c.C.C.v.M.M.N.N.N.g.i.M.N.N.C.Z.Z.Z.Z.A.A.Z.C.C.K n A C.C.C.g.N.N.N.C.g.K n ^ #XF &X&X%XA K U M 9 G ",
"8.P.z.'.c.u.a.Z Z A u i.M.g.c.c.v.N.M.M.N.N.C.C.B.M.g.C.C.Z.Z.Z.A.A.Z.C.C.C.C.u N.Z.Z.C.C.N.N.C.g.%XA F >Xm N.N.S.N.b M F F H 9 "
};
